<svg version="1.1" xmlns="http://www.w3.org/2000/svg" xmlns:xlink="http://www.w3.org/1999/xlink" width="925" height="930"><defs/><g><g/><g/><g/><g/><g/><g/><g/><g/><g/><g/><g/><g/><g><rect fill="white" stroke="none" x="0" y="0" width="925" height="930"/></g><g/><g><path fill="none" stroke="black" paint-order="fill stroke markers" d=" M 42.20674448369141 94.73161359899999 L 42.20674448369141 930.3400900990002" stroke-miterlimit="10" stroke-width="1.4659797833333332" stroke-dasharray="13.532121076923076,5.863919133333333"/><path fill="none" stroke="black" paint-order="fill stroke markers" d=" M 149.25969463414714 94.73161359899999 L 149.25969463414714 930.3400900990002" stroke-miterlimit="10" stroke-width="1.4659797833333332" stroke-dasharray="13.532121076923076,5.863919133333333"/><path fill="none" stroke="black" paint-order="fill stroke markers" d=" M 341.5422195674154 94.73161359899999 L 341.5422195674154 930.3400900990002" stroke-miterlimit="10" stroke-width="1.4659797833333332" stroke-dasharray="13.532121076923076,5.863919133333333"/><path fill="none" stroke="black" paint-order="fill stroke markers" d=" M 719.0214760680665 94.73161359899999 L 719.0214760680665 930.3400900990002" stroke-miterlimit="10" stroke-width="1.4659797833333332" stroke-dasharray="13.532121076923076,5.863919133333333"/></g><g><g><path fill="white" stroke="black" paint-order="fill stroke markers" d=" M 52.234046201691406 20.318479796999988 A 10.027301717999999 10.027301717999999 0 1 1 52.23404118804097 20.308452496953198 M 42.20674448369141 30.345781514999988 L 42.20674448369141 51.80772554299999 M 29.54067915569141 38.08615477099999 L 54.87280981169141 38.08615477099999 M 42.20674448369141 51.80772554299999 L 29.54067915569141 71.86232897899998 M 42.20674448369141 51.80772554299999 L 54.87280981169141 71.86232897899998" stroke-miterlimit="10" stroke-width="2.990598758" stroke-dasharray=""/></g><g><g/><text fill="black" stroke="none" font-family="sans-serif" font-size="11pt" font-style="normal" font-weight="normal" text-decoration="normal" x="8.795878700000003" y="89.45408637899999" text-anchor="start" dominant-baseline="alphabetic" xml:space="preserve">Developer</text></g><path fill="none" stroke="none"/><g><path fill="white" stroke="black" paint-order="fill stroke markers" d=" M 107.3594664684284 47.23386861899999 L 191.1599227998659 47.23386861899999 L 191.1599227998659 94.73161359899999 L 107.3594664684284 94.73161359899999 L 107.3594664684284 47.23386861899999 Z" stroke-miterlimit="10" stroke-width="2.814681184" stroke-dasharray=""/></g><g><g/><text fill="black" stroke="none" font-family="sans-serif" font-size="11pt" font-style="normal" font-weight="normal" text-decoration="normal" x="126.44652324742839" y="77.13985619899998" text-anchor="start" dominant-baseline="alphabetic" xml:space="preserve">GitHub</text></g><path fill="none" stroke="none"/><g><path fill="white" stroke="black" paint-order="fill stroke markers" d=" M 267.981323982263 47.23386861899999 L 415.10311515256774 47.23386861899999 L 415.10311515256774 94.73161359899999 L 267.981323982263 94.73161359899999 L 267.981323982263 47.23386861899999 Z" stroke-miterlimit="10" stroke-width="2.814681184" stroke-dasharray=""/></g><g><g/><text fill="black" stroke="none" font-family="sans-serif" font-size="11pt" font-style="normal" font-weight="normal" text-decoration="normal" x="287.06838076126303" y="77.13985619899998" text-anchor="start" dominant-baseline="alphabetic" xml:space="preserve">deploy.altlab.dev</text></g><path fill="none" stroke="none"/><g><path fill="white" stroke="black" paint-order="fill stroke markers" d=" M 673.0446716694375 47.40978619299999 L 764.9982804666954 47.40978619299999 L 764.9982804666954 94.73161359899999 L 673.0446716694375 94.73161359899999 L 673.0446716694375 47.40978619299999 Z" stroke-miterlimit="10" stroke-width="2.814681184" stroke-dasharray=""/></g><g><text fill="black" stroke="none" font-family="sans-serif" font-size="11pt" font-style="normal" font-weight="normal" text-decoration="normal" x="692.1317284484376" y="77.13985619899998" text-anchor="start" dominant-baseline="alphabetic" xml:space="preserve"> altlab-* </text></g></g><g><path fill="white" stroke="black" paint-order="fill stroke markers" d=" M 140.46381593414714 152.784413019 L 158.05557333414714 152.784413019 L 158.05557333414714 912.7483326990002 L 140.46381593414714 912.7483326990002 L 140.46381593414714 152.784413019" stroke-miterlimit="10" stroke-width="1.4659797833333332" stroke-dasharray=""/><path fill="white" stroke="black" paint-order="fill stroke markers" d=" M 149.25969463414714 224.910618359 L 166.85145203414714 224.910618359 L 166.85145203414714 318.14693257900007 L 149.25969463414714 318.14693257900007 L 149.25969463414714 224.910618359" stroke-miterlimit="10" stroke-width="1.4659797833333332" stroke-dasharray=""/><path fill="white" stroke="black" paint-order="fill stroke markers" d=" M 332.74634086741537 390.273137919 L 350.3380982674154 390.273137919 L 350.3380982674154 868.7689391990002 L 332.74634086741537 868.7689391990002 L 332.74634086741537 390.273137919" stroke-miterlimit="10" stroke-width="1.4659797833333332" stroke-dasharray=""/><path fill="white" stroke="black" paint-order="fill stroke markers" d=" M 341.5422195674154 462.39934325900003 L 359.1339769674154 462.39934325900003 L 359.1339769674154 518.692966939 L 341.5422195674154 518.692966939 L 341.5422195674154 462.39934325900003" stroke-miterlimit="10" stroke-width="1.4659797833333332" stroke-dasharray=""/><path fill="white" stroke="black" paint-order="fill stroke markers" d=" M 710.2255973680665 555.6356574790001 L 727.8173547680665 555.6356574790001 L 727.8173547680665 819.5120184790002 L 710.2255973680665 819.5120184790002 L 710.2255973680665 555.6356574790001" stroke-miterlimit="10" stroke-width="1.4659797833333332" stroke-dasharray=""/><path fill="white" stroke="black" paint-order="fill stroke markers" d=" M 149.25969463414714 604.8925781990001 L 166.85145203414714 604.8925781990001 L 166.85145203414714 654.1494989190002 L 149.25969463414714 654.1494989190002 L 149.25969463414714 604.8925781990001" stroke-miterlimit="10" stroke-width="1.4659797833333332" stroke-dasharray=""/><path fill="white" stroke="black" paint-order="fill stroke markers" d=" M 719.0214760680665 726.2757042590001 L 736.6132334680665 726.2757042590001 L 736.6132334680665 782.5693279390001 L 719.0214760680665 782.5693279390001 L 719.0214760680665 726.2757042590001" stroke-miterlimit="10" stroke-width="1.4659797833333332" stroke-dasharray=""/><g><g><rect fill="white" stroke="none" x="63.02365740702474" y="129.915128399" width="56.62324560378906" height="22.86928462"/></g><text fill="black" stroke="none" font-family="sans-serif" font-size="11pt" font-style="normal" font-weight="normal" text-decoration="normal" x="65.66242101702474" y="145.747710059" text-anchor="start" dominant-baseline="alphabetic" xml:space="preserve">git push</text></g><g><path fill="none" stroke="black" paint-order="fill stroke markers" d=" M 42.20674448369141 152.784413019 L 138.26484625914713 152.784413019" stroke-miterlimit="10" stroke-width="1.4659797833333332" stroke-dasharray=""/><g transform="translate(140.46381593414714,152.784413019) translate(-140.46381593414714,-152.784413019)"><path fill="none" stroke="black" paint-order="fill stroke markers" d=" M 125.39201429085817 146.0607541883286 L 138.81580069432462 152.784413019 L 125.39201429085817 159.5080718496714" stroke-miterlimit="10" stroke-width="1.4659797833333332"/></g></g><g><g><rect fill="white" stroke="none" x="187.66836495748046" y="179.172049119" width="130.76065099929687" height="22.86928462"/></g><text fill="black" stroke="none" font-family="sans-serif" font-size="11pt" font-style="normal" font-weight="normal" text-decoration="normal" x="190.30712856748048" y="195.00463077900002" text-anchor="start" dominant-baseline="alphabetic" xml:space="preserve">build Docker image</text></g><g><path fill="none" stroke="black" paint-order="fill stroke markers" d=" M 158.05557333414714 202.041333739 L 237.21848163414714 202.041333739 L 237.21848163414714 224.910618359 L 181.33533229348046 224.910618359" stroke-miterlimit="10" stroke-width="1.4659797833333332" stroke-dasharray=""/><g transform="translate(166.85145203414714,224.910618359) translate(-166.85145203414714,-224.910618359)"><path fill="black" stroke="none" paint-order="stroke fill markers" d=" M 181.51124986748047 217.58071944233333 L 166.85145203414714 224.910618359 L 181.51124986748047 232.2405172756667 Z"/></g></g><g><g><rect fill="white" stroke="none" x="187.66836495748046" y="295.27764795900003" width="126.12217748855468" height="22.86928462"/></g><text fill="black" stroke="none" font-family="sans-serif" font-size="11pt" font-style="normal" font-weight="normal" text-decoration="normal" x="190.30712856748048" y="311.11022961900005" text-anchor="start" dominant-baseline="alphabetic" xml:space="preserve">{appname}@latest</text></g><g><path fill="none" stroke="black" paint-order="fill stroke markers" d=" M 166.85145203414714 318.14693257900007 L 237.21848163414714 318.14693257900007 L 237.21848163414714 341.01621719900004 L 160.25454300914714 341.01621719900004" stroke-miterlimit="10" stroke-width="1.4659797833333332" stroke-dasharray="7.0367029599999995"/><g transform="translate(158.05557333414714,341.01621719900004) translate(-158.05557333414714,-341.01621719900004)"><path fill="none" stroke="black" paint-order="fill stroke markers" d=" M 173.1273749774361 334.2925583683287 L 159.70358857396965 341.01621719900004 L 173.1273749774361 347.7398760296714" stroke-miterlimit="10" stroke-width="1.4659797833333332"/></g></g><g><g><rect fill="white" stroke="none" x="183.27042560748046" y="367.40385329900005" width="124.26106298660156" height="22.86928462"/></g><text fill="black" stroke="none" font-family="sans-serif" font-size="11pt" font-style="normal" font-weight="normal" text-decoration="normal" x="185.90918921748047" y="383.23643495900006" text-anchor="start" dominant-baseline="alphabetic" xml:space="preserve">POST /{appname}</text></g><g><path fill="none" stroke="black" paint-order="fill stroke markers" d=" M 158.05557333414714 390.273137919 L 318.26246060808205 390.273137919" stroke-miterlimit="10" stroke-width="1.4659797833333332" stroke-dasharray=""/><g transform="translate(332.74634086741537,390.273137919) translate(-332.74634086741537,-390.273137919)"><path fill="black" stroke="none" paint-order="stroke fill markers" d=" M 318.086543034082 382.94323900233337 L 332.74634086741537 390.273137919 L 318.086543034082 397.60303683566667 Z"/></g></g><g><g><rect fill="white" stroke="none" x="379.9508898907487" y="416.66077401900003" width="156.03622472976562" height="22.86928462"/></g><text fill="black" stroke="none" font-family="sans-serif" font-size="11pt" font-style="normal" font-weight="normal" text-decoration="normal" x="382.58965350074874" y="432.49335567900005" text-anchor="start" dominant-baseline="alphabetic" xml:space="preserve">authenticate secret key</text></g><g><path fill="none" stroke="black" paint-order="fill stroke markers" d=" M 350.3380982674154 439.53005863900006 L 429.5010065674154 439.53005863900006 L 429.5010065674154 462.39934325900003 L 373.6178572267487 462.39934325900003" stroke-miterlimit="10" stroke-width="1.4659797833333332" stroke-dasharray=""/><g transform="translate(359.1339769674154,462.39934325900003) translate(-359.1339769674154,-462.39934325900003)"><path fill="black" stroke="none" paint-order="stroke fill markers" d=" M 373.79377480074874 455.0694443423334 L 359.1339769674154 462.39934325900003 L 373.79377480074874 469.7292421756667 Z"/></g></g><g><g><rect fill="white" stroke="none" x="375.5529505407488" y="532.7663728590001" width="309.4577945539844" height="22.86928462"/></g><text fill="black" stroke="none" font-family="sans-serif" font-size="11pt" font-style="normal" font-weight="normal" text-decoration="normal" x="378.1917141507488" y="548.598954519" text-anchor="start" dominant-baseline="alphabetic" xml:space="preserve">ssh deploy@altlab-{name} docker-compose up</text></g><g><path fill="none" stroke="black" paint-order="fill stroke markers" d=" M 350.3380982674154 555.6356574790001 L 695.7417171087332 555.6356574790001" stroke-miterlimit="10" stroke-width="1.4659797833333332" stroke-dasharray=""/><g transform="translate(710.2255973680665,555.6356574790001) translate(-710.2255973680665,-555.6356574790001)"><path fill="black" stroke="none" paint-order="stroke fill markers" d=" M 695.5657995347332 548.3057585623334 L 710.2255973680665 555.6356574790001 L 695.5657995347332 562.9655563956668 Z"/></g></g><g><g><rect fill="white" stroke="none" x="337.99356449686854" y="582.0232935790001" width="201.08992040847656" height="22.86928462"/></g><text fill="black" stroke="none" font-family="sans-serif" font-size="11pt" font-style="normal" font-weight="normal" text-decoration="normal" x="340.63232810686856" y="597.855875239" text-anchor="start" dominant-baseline="alphabetic" xml:space="preserve">docker pull {appname}@latest</text></g><g><path fill="none" stroke="black" paint-order="fill stroke markers" d=" M 710.2255973680665 604.8925781990001 L 181.33533229348046 604.8925781990001" stroke-miterlimit="10" stroke-width="1.4659797833333332" stroke-dasharray=""/><g transform="translate(166.85145203414714,604.8925781990001) translate(-166.85145203414714,-604.8925781990001)"><path fill="black" stroke="none" paint-order="stroke fill markers" d=" M 181.51124986748047 597.5626792823334 L 166.85145203414714 604.8925781990001 L 181.51124986748047 612.2224771156668 Z"/></g></g><g><g><rect fill="white" stroke="none" x="390.2734335764584" y="631.2802142990001" width="96.53018224929687" height="22.86928462"/></g><text fill="black" stroke="none" font-family="sans-serif" font-size="11pt" font-style="normal" font-weight="normal" text-decoration="normal" x="392.9121971864584" y="647.1127959590001" text-anchor="start" dominant-baseline="alphabetic" xml:space="preserve">Docker Image</text></g><g><path fill="none" stroke="black" paint-order="fill stroke markers" d=" M 166.85145203414714 654.1494989190002 L 708.0266276930665 654.1494989190002" stroke-miterlimit="10" stroke-width="1.4659797833333332" stroke-dasharray="7.0367029599999995"/><g transform="translate(710.2255973680665,654.1494989190002) translate(-710.2255973680665,-654.1494989190002)"><path fill="none" stroke="black" paint-order="fill stroke markers" d=" M 695.1537957247775 647.4258400883288 L 708.577582128244 654.1494989190002 L 695.1537957247775 660.8731577496716" stroke-miterlimit="10" stroke-width="1.4659797833333332"/></g></g><g><g><rect fill="white" stroke="none" x="757.4301463913998" y="680.5371350190002" width="161.7126621076953" height="22.86928462"/></g><text fill="black" stroke="none" font-family="sans-serif" font-size="11pt" font-style="normal" font-weight="normal" text-decoration="normal" x="760.0689100013998" y="696.3697166790001" text-anchor="start" dominant-baseline="alphabetic" xml:space="preserve">restart Docker container</text></g><g><path fill="none" stroke="black" paint-order="fill stroke markers" d=" M 727.8173547680665 703.4064196390001 L 806.9802630680665 703.4064196390001 L 806.9802630680665 726.2757042590001 L 751.0971137273998 726.2757042590001" stroke-miterlimit="10" stroke-width="1.4659797833333332" stroke-dasharray=""/><g transform="translate(736.6132334680665,726.2757042590001) translate(-736.6132334680665,-726.2757042590001)"><path fill="black" stroke="none" paint-order="stroke fill markers" d=" M 751.2730313013998 718.9458053423334 L 736.6132334680665 726.2757042590001 L 751.2730313013998 733.6056031756668 Z"/></g></g><g><g><rect fill="white" stroke="none" x="527.643084207741" y="796.6427338590001" width="5.27752722" height="22.86928462"/></g><text fill="black" stroke="none" font-family="sans-serif" font-size="11pt" font-style="normal" font-weight="normal" text-decoration="normal" x="530.281847817741" y="812.4753155190001" text-anchor="start" dominant-baseline="alphabetic" xml:space="preserve"></text></g><g><path fill="none" stroke="black" paint-order="fill stroke markers" d=" M 710.2255973680665 819.5120184790002 L 352.5370679424154 819.5120184790002" stroke-miterlimit="10" stroke-width="1.4659797833333332" stroke-dasharray="7.0367029599999995"/><g transform="translate(350.3380982674154,819.5120184790002) translate(-350.3380982674154,-819.5120184790002)"><path fill="none" stroke="black" paint-order="fill stroke markers" d=" M 365.4098999107044 812.7883596483288 L 351.9861135072379 819.5120184790002 L 365.4098999107044 826.2356773096716" stroke-miterlimit="10" stroke-width="1.4659797833333332"/></g></g><g><g><rect fill="white" stroke="none" x="217.90535907916015" y="845.8996545790002" width="54.991196043242184" height="22.86928462"/></g><text fill="black" stroke="none" font-family="sans-serif" font-size="11pt" font-style="normal" font-weight="normal" text-decoration="normal" x="220.54412268916016" y="861.7322362390001" text-anchor="start" dominant-baseline="alphabetic" xml:space="preserve">200 OK</text></g><g><path fill="none" stroke="black" paint-order="fill stroke markers" d=" M 332.74634086741537 868.7689391990002 L 160.25454300914714 868.7689391990002" stroke-miterlimit="10" stroke-width="1.4659797833333332" stroke-dasharray="7.0367029599999995"/><g transform="translate(158.05557333414714,868.7689391990002) translate(-158.05557333414714,-868.7689391990002)"><path fill="none" stroke="black" paint-order="fill stroke markers" d=" M 173.1273749774361 862.0452803683288 L 159.70358857396965 868.7689391990002 L 173.1273749774361 875.4925980296716" stroke-miterlimit="10" stroke-width="1.4659797833333332"/></g></g></g><g/><g/><g/></g></svg>